
	<svg xmlns="http://www.w3.org/2000/svg" xmlns:xlink="http://www.w3.org/1999/xlink" version="1.1" width="512" height="512" viewBox="0 0 100 100">


		<defs>
			<g id="background">
<path fill="url(#background-gradient)" stroke="none" d=" M 94.4 17.2 Q 91 13.8 86.2 13.8 L 25.35 13.8 Q 20.45 13.8 17.1 17.2 13.7 20.6 13.7 25.4 L 13.7 86.2 Q 13.7 91 17.1 94.4 20.45 97.8 25.35 97.8 L 86.2 97.8 Q 91 97.8 94.4 94.4 97.8 91 97.8 86.2 L 97.8 25.4 Q 97.8 20.6 94.4 17.2 Z"/>
</g><mask id="mask">
<path fill="#FFFFFF" stroke="none" d=" M 96 26.1 Q 96 21.8 92.9 18.7 89.8 15.6 85.5 15.6 L 26.05 15.6 Q 21.75 15.6 18.65 18.7 15.6 21.8 15.6 26.1 L 15.6 85.5 Q 15.6 89.9 18.65 92.9 21.75 96 26.05 96 L 85.5 96 Q 89.8 96 92.9 92.9 96 89.8 96 85.5 L 96 26.1 Z"/>
</mask><g id="bottom-1">
<path fill="#FFFFFF" fill-opacity="0.4" stroke="none" d=" M 86.5 21.15 Q 91.35 21.15 94.75 24.65 98.15 27.95 98.25 32.75 L 98.25 24.95 Q 98.25 20.05 94.75 16.65 91.35 13.15 86.5 13.15 L 25.05 13.15 Q 20.15 13.15 16.75 16.65 13.25 20.05 13.25 24.95 L 13.25 32.75 Q 13.35 27.95 16.75 24.65 20.15 21.15 25.05 21.15 L 86.5 21.15 Z"/>
</g><g id="bottom-2">
<path fill="#000000" fill-opacity="0.05" stroke="none" d=" M 86.5 98.4 Q 91.15 98.4 94.75 93.9 98.25 89.7 98.25 84.6 L 98.25 74.9 Q 98.15 79.6 94.75 82.9 91.35 86.4 86.5 86.4 L 25.05 86.4 Q 20.15 86.4 16.75 82.9 13.35 79.6 13.25 74.9 L 13.25 84.6 Q 13.25 89.7 16.75 93.9 20.35 98.4 25.05 98.4 L 86.5 98.4 Z"/>
</g><g id="bottom-3">
<path fill="#473342" fill-opacity="1" stroke="none" d=" M 6.9 16.5 Q 6.4 15.8 5.7 15.6 L 2.4 14.9 Q 1.6 14.8 0.9 15.2 0.2 15.7 0 16.5 -0.1 17.3 0.3 18 0.8 18.7 1.6 18.8 L 4.9 19.5 Q 5.7 19.7 6.4 19.2 7.1 18.7 7.2 17.9 7.4 17.1 6.9 16.5 M 11.9 11.9 Q 12.5 11.4 12.5 10.5 12.5 9.7 11.9 9.1 L 3.4 0.6 Q 2.8 0 2 0 1.2 0 0.6 0.6 0 1.2 0 2.1 0 2.9 0.6 3.5 L 9.1 11.9 Q 9.7 12.5 10.5 12.5 11.3 12.5 11.9 11.9 M 19.05 1.6 Q 18.95 0.8 18.15 0.3 17.5 -0.1 16.7 0 14.8 0.5 15.1 2.4 L 15.9 6.2 Q 16.1 7 16.7 7.5 17.4 8 18.15 7.8 18.95 7.7 19.45 6.9 19.95 6.2 19.75 5.4 L 19.05 1.6 M 100 26.1 Q 100 20.1 95.7 15.9 91.4 11.6 85.5 11.6 L 26.05 11.6 Q 20.05 11.6 15.9 15.9 11.6 20.1 11.6 26.1 L 11.6 85.5 Q 11.6 91.5 15.9 95.8 20.05 100 26.05 100 L 85.5 100 Q 91.4 100 95.7 95.8 100 91.5 100 85.5 L 100 26.1 M 85.5 15.6 Q 89.8 15.6 92.9 18.7 96 21.8 96 26.1 L 96 85.5 Q 96 89.8 92.9 92.9 89.8 96 85.5 96 L 26.05 96 Q 21.75 96 18.65 92.9 15.6 89.9 15.6 85.5 L 15.6 26.1 Q 15.6 21.8 18.65 18.7 21.75 15.6 26.05 15.6 L 85.5 15.6 Z"/>
</g>
			
	<linearGradient id="background-gradient" x1="0" y1="0" y2="1" x2="0" >
		<stop stop-color="#FECE43" offset="0%"/>
		<stop stop-color="#FECE43" offset="100%"/>
	</linearGradient>

			
			
			<g transform="scale(3.333333121405721) translate(2.000000938773155 9.685754776000977e-8)" id="picture"><path d="M26 8s0-.1 0 0v-.2s-.1-.2-.1-.3c-.1-.1-.1-.2-.2-.3l-.1-.1h-.1l-12-7h-.2c-.2-.1-.5-.1-.7 0h-.2l-12 7H.3l-.1.1s-.2.2-.2.3c.1.1 0 .2 0 .3v14.4c0 .1.1.2.1.3v.1l.1.1.1.1.1.1 12 7h.2c.1 0 .2.1.3.1s.2 0 .3-.1h.2l12-7 .1-.1s.1 0 .1-.1l.1-.1.1-.1c.1-.1.1-.2.1-.3V22L26 8zm-6.5 9.6c-.5-.3-1.1-.1-1.4.4s-.1 1.1.4 1.4L23 22l-9 5.3V15.6l10-5.8v10.5l-4.5-2.7zM7.9 18c-.3-.5-.9-.6-1.4-.4L2 20.3V9.7l10 5.8v11.7L3 22l4.5-2.6c.5-.3.6-.9.4-1.4zM13 9c.6 0 1-.4 1-1V2.7L23 8l-10 5.8L3 8l9-5.3V8c0 .6.4 1 1 1z"/></g>
			
	<linearGradient id="picture-gradient" x1="0" y1="0" y2="1" x2="0" >
		<stop stop-color="#ffffff" offset="0%"/>
		<stop stop-color="#e5eff9" offset="100%"/>
	</linearGradient>

		</defs>

		

			<use xlink:href="#background" fill="url(#background-gradient)" />

		

			<g mask="url(#mask)">
				<g transform="
				        translate(
                                61 61
)
                            translate(0 0)  scale(0.5)  
                            translate(
                                -61 -61
)">
						<use xlink:href="#picture" fill="url(#picture-gradient)"  />
				</g>
			</g>

		<use xlink:href="#bottom-1" /><use xlink:href="#bottom-2" /><use xlink:href="#bottom-3" />



	</svg>
